<?xml version="1.0" encoding="UTF-8" standalone="no"?>
<svg
   version="1.1"
   x="0px"
   y="0px"
   viewBox="0 0 45 45"
   enable-background="new 0 0 64 64"
   xml:space="preserve"
   id="svg21"
   sodipodi:docname="custom.svg"
   width="45"
   height="45"
   inkscape:version="1.1.1 (c3084ef, 2021-09-22)"
   xmlns:inkscape="http://www.inkscape.org/namespaces/inkscape"
   xmlns:sodipodi="http://sodipodi.sourceforge.net/DTD/sodipodi-0.dtd"
   xmlns="http://www.w3.org/2000/svg"
   xmlns:svg="http://www.w3.org/2000/svg"><defs
     id="defs25" /><sodipodi:namedview
     id="namedview23"
     pagecolor="#ffffff"
     bordercolor="#666666"
     borderopacity="1.0"
     inkscape:pageshadow="2"
     inkscape:pageopacity="0.0"
     inkscape:pagecheckerboard="0"
     showgrid="false"
     inkscape:zoom="10.5875"
     inkscape:cx="32.01889"
     inkscape:cy="23.565525"
     inkscape:window-width="1920"
     inkscape:window-height="1027"
     inkscape:window-x="1080"
     inkscape:window-y="1105"
     inkscape:window-maximized="1"
     inkscape:current-layer="svg21" /><g
     id="g15"
     transform="translate(-9.4451004,-9.539551)"><path
       d="m 32.2,44.5 c -0.6,0 -1,0.4 -1,1 v 3.6 h -4.9 v -3.6 c 0,0 0,0 0,-0.1 0,-0.1 0,-0.1 0,-0.2 0,-0.1 0,-0.1 -0.1,-0.2 0,-0.1 -0.1,-0.1 -0.1,-0.2 0,-0.1 -0.1,-0.1 -0.1,-0.1 0,0 -0.1,-0.1 -0.2,-0.1 -0.1,0 -0.1,-0.1 -0.2,-0.1 0,0 0,0 -0.1,0 -2.3,-0.6 -4.4,-1.8 -6.1,-3.5 0,0 0,0 -0.1,0 -0.1,0 -0.1,-0.1 -0.2,-0.1 -0.1,0 -0.1,-0.1 -0.2,-0.1 -0.1,0 -0.1,0 -0.2,0 -0.1,0 -0.1,0 -0.2,0 -0.1,0 -0.1,0 -0.2,0 -0.1,0 -0.1,0 -0.2,0.1 0,0 -0.1,0 -0.1,0 l -3.1,1.8 -2.5,-4.3 3.1,-1.8 c 0,0 0,0 0.1,0 0.1,0 0.1,-0.1 0.2,-0.1 0,0 0.1,-0.1 0.1,-0.1 0,-0.1 0.1,-0.1 0.1,-0.2 0,-0.1 0,-0.1 0.1,-0.2 0,-0.1 0,-0.1 0,-0.2 0,-0.1 0,-0.1 0,-0.2 0,0 0,0 0,-0.1 -0.3,-1.1 -0.5,-2.3 -0.5,-3.5 0,-1.2 0.2,-2.4 0.5,-3.5 0,0 0,0 0,-0.1 0,-0.1 0,-0.1 0,-0.2 0,-0.1 0,-0.1 0,-0.2 0,-0.1 0,-0.1 -0.1,-0.2 0,-0.1 0,-0.1 -0.1,-0.2 0,-0.1 -0.1,-0.1 -0.1,-0.1 0,0 -0.1,-0.1 -0.2,-0.1 0,0 0,0 -0.1,0 l -3.1,-1.8 2.5,-4.3 3.1,1.8 c 0,0 0,0 0.1,0 0.1,0 0.1,0 0.2,0.1 0.1,0 0.1,0 0.2,0 0,0 0,0 0.1,0 0,0 0.1,0 0.1,0 0.1,0 0.1,0 0.2,0 0.1,0 0.1,0 0.2,-0.1 0.1,0 0.1,-0.1 0.2,-0.1 0,0 0,0 0.1,0 1.7,-1.7 3.8,-2.9 6.1,-3.5 0,0 0,0 0.1,0 0.1,0 0.1,-0.1 0.2,-0.1 0.1,0 0.1,-0.1 0.2,-0.1 0,0 0.1,-0.1 0.1,-0.1 0,-0.1 0.1,-0.1 0.1,-0.2 0,-0.1 0,-0.1 0.1,-0.2 0,-0.1 0,-0.1 0,-0.2 0,0 0,0 0,-0.1 v -3.6 h 4.9 v 3.6 c 0,0 0,0 0,0.1 0,0.1 0,0.1 0,0.2 0,0.1 0,0.1 0.1,0.2 0,0.1 0.1,0.1 0.1,0.2 0,0.1 0.1,0.1 0.1,0.1 0,0 0.1,0.1 0.2,0.1 0.1,0 0.1,0.1 0.2,0.1 0,0 0,0 0.1,0 2.3,0.6 4.4,1.8 6.1,3.5 0.2,0.2 0.5,0.3 0.7,0.3 0.3,0 0.5,-0.1 0.7,-0.3 0.4,-0.4 0.4,-1 0,-1.4 -1.7,-1.8 -3.9,-3.1 -6.2,-3.8 V 14 c 0,-0.6 -0.4,-1 -1,-1 h -6.9 c -0.6,0 -1,0.4 -1,1 v 3.8 c -2.1,0.7 -4,1.8 -5.7,3.3 L 15.4,19.2 C 15.2,19.1 14.9,19 14.6,19.1 14.3,19.2 14.1,19.3 14,19.6 l -3.5,6 c -0.3,0.5 -0.1,1.1 0.4,1.4 l 3.3,1.9 c -0.2,1.1 -0.4,2.2 -0.4,3.3 0,1.1 0.1,2.2 0.4,3.3 l -3.3,1.9 c -0.5,0.3 -0.6,0.9 -0.4,1.4 l 3.5,6 c 0.1,0.2 0.4,0.4 0.6,0.5 0.1,0 0.2,0 0.3,0 0.2,0 0.3,0 0.5,-0.1 l 3.3,-1.9 c 1.6,1.5 3.6,2.6 5.7,3.3 v 3.8 c 0,0.6 0.4,1 1,1 h 6.9 c 0.6,0 1,-0.4 1,-1 V 45.8 C 33.2,45 32.7,44.5 32.2,44.5 Z"
       id="path9" /><path
       d="m 28.7,24.4 c -4.2,0 -7.6,3.4 -7.6,7.6 0,4.2 3.4,7.6 7.6,7.6 4.2,0 7.6,-3.4 7.6,-7.6 0,-4.2 -3.4,-7.6 -7.6,-7.6 z m 0,13.2 c -3.1,0 -5.6,-2.5 -5.6,-5.6 0,-3.1 2.5,-5.6 5.6,-5.6 3.1,0 5.6,2.5 5.6,5.6 0,3.1 -2.5,5.6 -5.6,5.6 z"
       id="path11" /><path
       d="m 50.3,17.7 c -1.3,-0.5 -2.8,-0.5 -4.1,0.1 -1.3,0.6 -2.3,1.6 -2.9,2.9 l -0.5,1.1 c 0,0 0,0 0,0 0,0 0,0 0,0 l -7.7,19.5 c 0,0.1 -0.1,0.2 -0.1,0.3 0,0 0,0.1 0,0.1 0,0 0,0.1 0,0.1 l 1.5,8.1 c 0.1,0.3 0.3,0.6 0.6,0.8 0.1,0 0.2,0.1 0.4,0.1 0.2,0 0.4,-0.1 0.6,-0.2 l 6.6,-4.9 c 0,0 0.1,-0.1 0.1,-0.1 0,0 0.1,0 0.1,-0.1 C 45,45.4 45,45.3 45,45.2 l 8.2,-20.6 c 0.5,-1.3 0.5,-2.8 -0.1,-4.1 -0.6,-1.3 -1.5,-2.3 -2.8,-2.8 z M 47,19.6 c 0.8,-0.4 1.7,-0.4 2.6,0 0.8,0.3 1.5,1 1.8,1.8 0.4,0.8 0.4,1.7 0,2.6 l -0.1,0.2 -6.2,-2.5 0.1,-0.2 c 0.3,-0.9 1,-1.5 1.8,-1.9 z m -3.4,24 -6.2,-2.5 7,-17.6 6.2,2.5 z m -6.2,-0.3 4.7,1.9 -3.9,2.9 z"
       id="path13" /></g></svg>
